<?xml version="1.0" standalone="no"?><!DOCTYPE svg PUBLIC "-//W3C//DTD SVG 1.1//EN" "http://www.w3.org/Graphics/SVG/1.1/DTD/svg11.dtd"><svg t="1481762936885" class="icon" style="" viewBox="-100 -100 1124 1224" version="1.1" xmlns="http://www.w3.org/2000/svg" p-id="3948" xmlns:xlink="http://www.w3.org/1999/xlink" width="16" height="16"><defs><style type="text/css"></style></defs><path d="M930.577067 307.6096L396.424533 841.728a34.304 34.304 0 0 1-48.5376 0l-10.786133-10.786133-0.034133 0.068266-11.6736-11.741866-50.346667-50.3808c-0.341333-0.341333-0.443733-0.785067-0.750933-1.092267l-231.0144-232.721067a34.338133 34.338133 0 0 1 0-48.571733l72.840533-72.840533a34.304 34.304 0 0 1 48.5376 0l207.7696 209.271466L809.1648 186.197333a34.338133 34.338133 0 0 1 48.571733 0l72.840534 72.840534c13.380267 13.4144 13.380267 35.157333 0 48.571733z" p-id="3949" fill="#ffffff"></path></svg>